<svg width="30" height="30" viewBox="0 0 30 30" fill="none" xmlns="http://www.w3.org/2000/svg">
<rect width="30" height="30" rx="15" fill="black"/>
<path fill-rule="evenodd" clip-rule="evenodd" d="M22.7202 7.31287C20.8602 5.44987 18.3822 4.42387 15.7452 4.42087C10.3122 4.42087 5.88715 8.84287 5.88715 14.2789C5.88715 16.0159 6.34015 17.7139 7.20415 19.2079L5.80615 24.3169L11.0322 22.9459C12.4722 23.7319 14.0922 24.1459 15.7422 24.1459H15.7452C21.1782 24.1459 25.6002 19.7239 25.6032 14.2879C25.6062 11.6539 24.5832 9.17587 22.7202 7.31287ZM15.7482 22.4809H15.7452C14.2752 22.4809 12.8322 22.0849 11.5752 21.3379L11.2752 21.1609L8.17315 21.9739L9.00115 18.9499L8.80615 18.6409C7.98715 17.3359 7.55215 15.8299 7.55215 14.2789C7.55515 9.76087 11.2302 6.08587 15.7512 6.08587C17.9412 6.08587 19.9962 6.94087 21.5442 8.48887C23.0922 10.0369 23.9442 12.0979 23.9412 14.2849C23.9412 18.8059 20.2632 22.4809 15.7482 22.4809ZM20.2422 16.3429C19.9962 16.2199 18.7842 15.6229 18.5592 15.5419C18.3342 15.4609 18.1692 15.4189 18.0042 15.6649C17.8392 15.9109 17.3682 16.4659 17.2242 16.6309C17.0802 16.7959 16.9362 16.8169 16.6902 16.6939C16.4442 16.5709 15.6492 16.3099 14.7102 15.4699C13.9782 14.8159 13.4832 14.0089 13.3392 13.7629C13.1952 13.5169 13.3242 13.3819 13.4472 13.2589C13.5582 13.1479 13.6932 12.9709 13.8162 12.8269C13.9392 12.6829 13.9812 12.5809 14.0622 12.4159C14.1432 12.2509 14.1042 12.1069 14.0412 11.9839C13.9782 11.8609 13.4862 10.6489 13.2822 10.1539C13.0812 9.67387 12.8802 9.73987 12.7272 9.73087C12.5832 9.72487 12.4182 9.72187 12.2562 9.72187C12.0912 9.72187 11.8242 9.78487 11.5992 10.0309C11.3742 10.2769 10.7382 10.8739 10.7382 12.0859C10.7382 13.2979 11.6202 14.4709 11.7432 14.6329C11.8662 14.7979 13.4802 17.2849 15.9522 18.3529C16.5402 18.6079 16.9992 18.7579 17.3562 18.8719C17.9472 19.0609 18.4842 19.0339 18.9072 18.9709C19.3812 18.8989 20.3652 18.3739 20.5692 17.8009C20.7732 17.2249 20.7732 16.7329 20.7132 16.6309C20.6532 16.5289 20.4882 16.4689 20.2422 16.3429Z" fill="#FBDC06"/>
</svg>
