<svg width="30" height="30" viewBox="0 0 30 30" fill="none" xmlns="http://www.w3.org/2000/svg">
<path d="M15 0C11.0218 0 7.20644 1.58035 4.3934 4.3934C1.58035 7.20644 0 11.0218 0 15C0 18.9782 1.58035 22.7936 4.3934 25.6066C7.20644 28.4196 11.0218 30 15 30C18.9782 30 22.7936 28.4196 25.6066 25.6066C28.4196 22.7936 30 18.9782 30 15C30 11.0218 28.4196 7.20644 25.6066 4.3934C22.7936 1.58035 18.9782 0 15 0Z" fill="black"/>
<path d="M23.9523 10.5306C23.9868 10.4174 24.0033 10.3124 23.9988 10.2186C23.9875 9.94713 23.8008 9.74988 23.3613 9.74988H21.3978C20.902 9.74988 20.6733 10.0499 20.5398 10.3506C20.5398 10.3506 19.3158 12.8699 17.905 14.5311C17.4475 15.0119 17.215 14.9999 16.9675 14.9999C16.8348 14.9999 16.4995 14.8394 16.4995 14.3991V10.5104C16.4995 9.98988 16.3698 9.74988 15.9505 9.74988H12.4638C12.1585 9.74988 11.9995 9.98988 11.9995 10.2306C11.9995 10.7309 12.673 10.8509 12.7495 12.2526V14.9699C12.7495 15.6299 12.6348 15.7499 12.3873 15.7499C11.7198 15.7499 10.4058 13.4999 9.52601 10.5509C9.33551 9.97038 9.14501 9.74988 8.64926 9.74988H6.66701C6.09476 9.74988 5.99951 10.0304 5.99951 10.3304C5.99951 10.8711 6.44951 13.7946 8.90576 17.1561C10.687 19.5936 13.0338 20.9999 15.1113 20.9999C16.3698 20.9999 16.4988 20.6796 16.4988 20.1794V17.9504C16.4995 17.3496 16.6368 17.2499 17.0373 17.2499C17.323 17.2499 17.9058 17.4374 19.0308 18.7499C20.3283 20.2634 20.5638 20.9999 21.3078 20.9999H23.2713C23.7273 20.9999 23.989 20.8086 23.9995 20.4374C24.0018 20.3429 23.9883 20.2371 23.9575 20.1194C23.812 19.6874 23.1445 18.6314 22.312 17.6249C21.8508 17.0676 21.3955 16.5156 21.1863 16.2156C21.046 16.0199 20.9928 15.8819 20.9995 15.7499C21.0063 15.6111 21.0783 15.4791 21.1863 15.2946C21.1668 15.2946 23.7048 11.7314 23.9523 10.5306Z" fill="#FBDC06"/>
</svg>
