<svg width="22" height="22" viewBox="0 0 22 22" fill="none" xmlns="http://www.w3.org/2000/svg">
<path d="M11 22C17.0751 22 22 17.0751 22 11C22 4.92487 17.0751 0 11 0C4.92487 0 0 4.92487 0 11C0 17.0751 4.92487 22 11 22Z" fill="url(#paint0_linear_260_42)"/>
<path d="M16.354 6.3293L14.3903 16.2336C14.3903 16.2336 14.1153 16.9211 13.359 16.5902L8.82584 13.1141L7.17584 12.3191L4.40006 11.3867C4.40006 11.3867 3.97467 11.2363 3.9317 10.9055C3.88873 10.5746 4.41295 10.3984 4.41295 10.3984L15.4473 6.07149C15.4473 6.06719 16.354 5.66758 16.354 6.3293Z" fill="white"/>
<path d="M8.47344 16.1219C8.47344 16.1219 8.34023 16.109 8.17695 15.5891C8.01367 15.0692 7.17578 12.3192 7.17578 12.3192L13.8402 8.08677C13.8402 8.08677 14.227 7.85474 14.2098 8.08677C14.2098 8.08677 14.2785 8.12974 14.0723 8.3188C13.866 8.51216 8.83867 13.0325 8.83867 13.0325" fill="#D2E4F0"/>
<path d="M10.5615 14.4461L8.76973 16.0832C8.76973 16.0832 8.62793 16.1906 8.47754 16.1219L8.82129 13.084" fill="#B5CFE4"/>
<defs>
<linearGradient id="paint0_linear_260_42" x1="11" y1="0" x2="11" y2="21.9197" gradientUnits="userSpaceOnUse">
<stop stop-color="#41BCE7"/>
<stop offset="1" stop-color="#22A6DC"/>
</linearGradient>
</defs>
</svg>
