<svg width="23" height="23" viewBox="0 0 23 23" fill="none" xmlns="http://www.w3.org/2000/svg">
<path d="M11.8335 0.833496C8.91611 0.833496 6.11822 1.99242 4.05532 4.05532C1.99242 6.11822 0.833496 8.91611 0.833496 11.8335C0.833496 14.7509 1.99242 17.5488 4.05532 19.6117C6.11822 21.6746 8.91611 22.8335 11.8335 22.8335C14.7509 22.8335 17.5488 21.6746 19.6117 19.6117C21.6746 17.5488 22.8335 14.7509 22.8335 11.8335C22.8335 8.91611 21.6746 6.11822 19.6117 4.05532C17.5488 1.99242 14.7509 0.833496 11.8335 0.833496Z" fill="#1976D2"/>
<path d="M18.3987 8.55595C18.424 8.4729 18.4361 8.3959 18.4328 8.32715C18.4246 8.12805 18.2876 7.9834 17.9653 7.9834H16.5254C16.1619 7.9834 15.9941 8.2034 15.8962 8.42395C15.8962 8.42395 14.9986 10.2714 13.9641 11.4896C13.6286 11.8422 13.4581 11.8334 13.2766 11.8334C13.1792 11.8334 12.9334 11.7157 12.9334 11.3928V8.5411C12.9334 8.1594 12.8382 7.9834 12.5308 7.9834H9.97385C9.75 7.9834 9.6334 8.1594 9.6334 8.33595C9.6334 8.7028 10.1273 8.7908 10.1834 9.81875V11.8114C10.1834 12.2954 10.0992 12.3834 9.91775 12.3834C9.42825 12.3834 8.46465 10.7334 7.8195 8.5708C7.6798 8.1451 7.5401 7.9834 7.17655 7.9834H5.7229C5.30325 7.9834 5.2334 8.1891 5.2334 8.4091C5.2334 8.80565 5.5634 10.9495 7.36465 13.4146C8.6709 15.2021 10.3918 16.2334 11.9153 16.2334C12.8382 16.2334 12.9328 15.9985 12.9328 15.6317V13.9971C12.9334 13.5565 13.034 13.4834 13.3277 13.4834C13.5373 13.4834 13.9646 13.6209 14.7896 14.5834C15.7411 15.6933 15.9138 16.2334 16.4594 16.2334H17.8993C18.2337 16.2334 18.4257 16.0931 18.4334 15.8209C18.435 15.7516 18.4251 15.674 18.4026 15.5877C18.2959 15.2709 17.8064 14.4965 17.1959 13.7584C16.8576 13.3497 16.5238 12.9449 16.3703 12.7249C16.2675 12.5814 16.2284 12.4802 16.2334 12.3834C16.2383 12.2816 16.2911 12.1848 16.3703 12.0495C16.356 12.0495 18.2172 9.4365 18.3987 8.55595Z" fill="white"/>
</svg>
