<svg width="22" height="22" viewBox="0 0 22 22" fill="none" xmlns="http://www.w3.org/2000/svg">
<rect width="22" height="22" rx="11" fill="#25D366"/>
<path fill-rule="evenodd" clip-rule="evenodd" d="M16.6614 5.36274C15.2974 3.99654 13.4802 3.24414 11.5464 3.24194C7.56221 3.24194 4.31721 6.48474 4.31721 10.4711C4.31721 11.7449 4.64941 12.9901 5.28301 14.0857L4.25781 17.8323L8.09021 16.8269C9.14621 17.4033 10.3342 17.7069 11.5442 17.7069H11.5464C15.5306 17.7069 18.7734 14.4641 18.7756 10.4777C18.7778 8.54614 18.0276 6.72894 16.6614 5.36274ZM11.5486 16.4859H11.5464C10.4684 16.4859 9.41021 16.1955 8.48841 15.6477L8.26841 15.5179L5.99361 16.1141L6.60081 13.8965L6.45781 13.6699C5.85721 12.7129 5.53821 11.6085 5.53821 10.4711C5.54041 7.15794 8.23541 4.46294 11.5508 4.46294C13.1568 4.46294 14.6638 5.08994 15.799 6.22514C16.9342 7.36034 17.559 8.87174 17.5568 10.4755C17.5568 13.7909 14.8596 16.4859 11.5486 16.4859ZM14.8442 11.9847C14.6638 11.8945 13.775 11.4567 13.61 11.3973C13.445 11.3379 13.324 11.3071 13.203 11.4875C13.082 11.6679 12.7366 12.0749 12.631 12.1959C12.5254 12.3169 12.4198 12.3323 12.2394 12.2421C12.059 12.1519 11.476 11.9605 10.7874 11.3445C10.2506 10.8649 9.88761 10.2731 9.78201 10.0927C9.67641 9.91234 9.77101 9.81334 9.86121 9.72314C9.94261 9.64174 10.0416 9.51194 10.1318 9.40634C10.222 9.30074 10.2528 9.22594 10.3122 9.10494C10.3716 8.98394 10.343 8.87834 10.2968 8.78814C10.2506 8.69794 9.88981 7.80914 9.74021 7.44614C9.59281 7.09414 9.44541 7.14254 9.33321 7.13594C9.22761 7.13154 9.10661 7.12934 8.98781 7.12934C8.86681 7.12934 8.67101 7.17554 8.50601 7.35594C8.34101 7.53634 7.87461 7.97414 7.87461 8.86294C7.87461 9.75174 8.52141 10.6119 8.61161 10.7307C8.70181 10.8517 9.88541 12.6755 11.6982 13.4587C12.1294 13.6457 12.466 13.7557 12.7278 13.8393C13.1612 13.9779 13.555 13.9581 13.8652 13.9119C14.2128 13.8591 14.9344 13.4741 15.084 13.0539C15.2336 12.6315 15.2336 12.2707 15.1896 12.1959C15.1456 12.1211 15.0246 12.0771 14.8442 11.9847Z" fill="white"/>
</svg>
